<?xml version="1.0" standalone="no"?>
<!DOCTYPE svg PUBLIC "-//W3C//DTD SVG 20010904//EN"
 "http://www.w3.org/TR/2001/REC-SVG-20010904/DTD/svg10.dtd">
<svg version="1.0" xmlns="http://www.w3.org/2000/svg"
 width="584.000000pt" height="584.000000pt" viewBox="0 0 584.000000 584.000000"
 preserveAspectRatio="xMidYMid meet">
<metadata>
Created by potrace 1.11, written by Peter Selinger 2001-2013
</metadata>
<g transform="translate(0.000000,584.000000) scale(0.100000,-0.100000)"
fill="#000000" stroke="none">
<path d="M2986 5321 c-3 -5 -35 -8 -71 -7 -36 0 -65 -1 -65 -4 0 -3 -39 -5
-86 -5 -47 0 -88 -3 -90 -6 -2 -3 -22 -6 -44 -7 -23 -1 -47 -5 -53 -9 -6 -4
-30 -9 -52 -11 -22 -2 -46 -9 -54 -15 -12 -10 -13 -9 -6 3 7 12 6 13 -6 3 -12
-10 -18 -10 -28 0 -10 9 -12 9 -9 -3 2 -9 -5 -15 -22 -15 -14 0 -31 -4 -38 -9
-7 -4 -20 -5 -28 -2 -9 3 -12 1 -9 -4 5 -8 -19 -15 -28 -7 -2 1 -15 -6 -30
-16 -15 -10 -32 -15 -37 -12 -6 3 -10 2 -10 -3 0 -5 -7 -9 -15 -10 -8 -1 -22
-3 -30 -4 -8 -1 -15 -6 -15 -11 0 -5 -6 -7 -14 -4 -7 3 -23 -1 -34 -8 -10 -8
-22 -12 -25 -9 -3 3 -15 -3 -26 -13 -12 -10 -23 -16 -25 -13 -2 3 -14 -4 -27
-15 -12 -11 -19 -14 -15 -7 4 7 -13 -2 -38 -19 -25 -16 -50 -27 -56 -24 -5 3
-10 1 -10 -5 0 -7 -7 -10 -15 -6 -9 3 -15 0 -15 -10 0 -9 -5 -14 -12 -12 -6 2
-23 -6 -36 -19 -14 -13 -32 -21 -39 -18 -8 3 -11 0 -8 -6 4 -6 -2 -13 -14 -16
-11 -3 -18 -9 -15 -14 5 -8 -9 -13 -28 -10 -5 0 -8 -4 -8 -10 0 -5 -4 -8 -9
-4 -6 3 -15 -4 -21 -15 -6 -11 -14 -19 -18 -17 -7 2 -23 -10 -64 -47 -11 -10
-27 -19 -37 -21 -9 -1 -15 -8 -14 -14 2 -6 -7 -11 -19 -11 -12 0 -19 -3 -15
-6 8 -8 -16 -33 -25 -27 -5 2 -8 -3 -8 -11 0 -9 -7 -16 -15 -16 -8 0 -15 -4
-15 -10 0 -5 -7 -10 -16 -10 -8 0 -13 -4 -9 -9 6 -10 -34 -37 -48 -33 -5 1 -6
-2 -2 -8 3 -5 1 -10 -5 -10 -6 0 -8 -4 -5 -10 6 -9 -8 -14 -28 -11 -4 0 -6 -2
-6 -6 3 -21 -2 -33 -13 -31 -7 2 -12 -3 -10 -9 1 -7 -5 -13 -13 -13 -8 0 -15
-3 -15 -7 0 -5 -11 -21 -25 -37 -14 -16 -25 -33 -25 -38 0 -5 -4 -6 -10 -3 -5
3 -10 2 -10 -4 0 -17 -46 -61 -56 -53 -4 4 -2 -2 6 -12 8 -11 10 -17 4 -13 -6
3 -16 -5 -22 -18 -7 -14 -16 -25 -22 -25 -6 0 -9 -4 -5 -9 3 -6 -1 -13 -8 -18
-7 -4 -24 -27 -37 -50 -13 -23 -28 -39 -33 -36 -6 4 -7 1 -2 -6 4 -7 -2 -22
-16 -37 -12 -13 -19 -24 -14 -24 4 0 0 -10 -11 -22 -13 -14 -14 -19 -4 -14 11
6 11 4 -1 -6 -9 -7 -19 -23 -23 -36 -4 -12 -12 -22 -18 -22 -5 0 -8 -7 -4 -15
3 -10 -1 -15 -12 -15 -13 0 -14 -2 -3 -9 7 -5 9 -10 4 -12 -7 -3 -52 -87 -58
-109 -3 -10 -18 -45 -46 -109 -16 -35 -26 -67 -23 -72 3 -5 0 -9 -6 -9 -6 0
-8 -4 -5 -10 3 -5 2 -10 -3 -10 -5 0 -9 -6 -10 -12 -6 -50 -11 -63 -20 -61 -6
2 -9 -4 -6 -12 8 -20 -4 -67 -16 -60 -5 3 -12 0 -16 -6 -5 -8 -3 -9 6 -4 10 6
11 0 6 -26 -4 -19 -7 -42 -7 -51 0 -10 -8 -18 -17 -18 -13 0 -14 -2 -3 -9 10
-7 11 -13 2 -30 -9 -16 -9 -21 0 -21 8 0 9 -4 0 -13 -6 -8 -8 -17 -4 -20 3 -4
1 -7 -6 -7 -8 0 -11 -6 -7 -17 4 -9 1 -20 -6 -24 -9 -6 -8 -12 3 -25 13 -16
12 -17 -5 -11 -15 6 -17 5 -8 -6 7 -8 10 -16 7 -19 -3 -3 -6 -22 -7 -42 -1
-22 -8 -41 -17 -46 -14 -8 -14 -9 2 -10 14 0 16 -4 8 -18 -5 -10 -8 -27 -7
-38 2 -10 1 -23 -2 -29 -4 -5 -5 -23 -3 -39 2 -21 0 -26 -11 -20 -10 6 -11 5
-1 -7 10 -12 10 -18 0 -29 -9 -10 -9 -11 1 -6 6 4 12 2 12 -3 0 -6 -6 -11 -12
-11 -8 0 -9 -3 -3 -8 15 -11 17 -32 2 -32 -8 0 -7 -4 3 -10 13 -9 13 -11 0
-20 -8 -5 -10 -10 -4 -10 7 0 12 -21 11 -54 0 -30 3 -59 7 -64 3 -6 2 -13 -4
-17 -6 -4 -3 -16 8 -33 12 -19 13 -24 3 -17 -11 6 -13 4 -7 -11 9 -20 17 -68
17 -96 0 -10 5 -18 10 -18 6 0 6 -7 -1 -19 -7 -14 -6 -21 3 -24 8 -4 8 -6 -2
-6 -11 -1 -10 -5 5 -17 10 -8 13 -12 5 -8 -10 5 -12 3 -5 -7 4 -8 9 -18 10
-24 1 -5 5 -25 9 -44 3 -19 9 -39 12 -44 4 -7 -1 -8 -13 -4 -15 6 -14 4 4 -11
15 -12 24 -29 24 -50 1 -18 5 -32 9 -32 4 0 6 -9 4 -20 -2 -11 0 -20 5 -20 4
0 11 -7 14 -16 4 -10 2 -13 -7 -8 -9 6 -9 5 0 -7 10 -12 10 -18 0 -28 -9 -10
-9 -12 1 -9 9 2 23 -22 40 -67 14 -38 29 -71 33 -73 4 -2 5 -10 2 -19 -5 -12
-3 -14 7 -8 9 5 11 4 6 -3 -13 -21 -15 -51 -4 -58 7 -5 8 -2 3 6 -5 8 -3 11 6
8 8 -3 14 -17 14 -31 -1 -14 2 -24 5 -22 4 2 14 -5 23 -15 9 -11 12 -22 7 -25
-6 -4 -10 -12 -10 -18 0 -7 4 -6 10 3 9 13 10 13 11 0 1 -8 1 -18 0 -22 0 -5
4 -8 10 -8 6 0 9 -9 6 -19 -3 -14 -1 -18 9 -14 9 3 14 -2 14 -16 0 -12 5 -21
10 -21 6 0 10 -6 10 -14 0 -8 6 -16 13 -19 9 -3 9 -10 -2 -28 -13 -22 -13 -23
3 -10 15 13 19 13 26 1 5 -8 5 -19 -1 -26 -7 -8 -6 -11 3 -10 7 0 15 -3 18 -9
5 -10 27 -39 46 -59 6 -7 14 -21 18 -33 4 -12 13 -24 21 -27 8 -3 15 -12 15
-21 0 -8 7 -15 16 -15 8 0 12 -4 9 -10 -3 -5 -1 -10 4 -10 6 0 11 -4 11 -9 0
-10 40 -58 93 -111 22 -21 36 -44 32 -50 -3 -6 -1 -9 7 -8 7 2 12 -3 11 -9 -2
-7 3 -12 10 -10 6 1 11 -4 10 -10 -2 -7 1 -12 5 -10 9 2 72 -48 72 -58 0 -12
27 -34 34 -28 3 4 6 -5 6 -18 0 -17 3 -20 9 -10 7 10 11 9 22 -6 8 -11 22 -22
32 -26 9 -3 17 -14 17 -24 0 -15 2 -16 10 -3 8 13 10 12 10 -3 0 -10 4 -16 8
-13 5 3 15 -4 22 -15 8 -10 20 -19 27 -19 7 0 13 -4 13 -10 0 -5 5 -10 11 -10
6 0 17 -6 24 -13 34 -29 50 -42 55 -42 3 0 4 -4 2 -10 -2 -5 -1 -7 3 -3 4 3
27 -7 52 -22 25 -16 50 -27 56 -23 6 3 7 2 4 -4 -4 -6 1 -19 9 -29 9 -10 13
-13 9 -6 -8 15 -3 15 29 1 14 -7 23 -16 20 -21 -3 -5 -2 -7 3 -6 13 4 83 -24
83 -34 0 -4 3 -7 8 -6 4 1 17 -3 28 -10 12 -6 24 -8 28 -5 3 3 6 -2 7 -13 0
-10 3 -14 6 -7 3 8 10 9 21 4 34 -17 81 -35 107 -41 6 -1 15 -6 21 -11 7 -5
23 -12 35 -14 13 -3 26 -10 27 -15 3 -7 9 -7 18 1 11 9 14 9 14 0 0 -7 4 -10
9 -6 5 3 12 1 16 -5 4 -6 11 -8 16 -5 5 4 9 1 9 -6 0 -8 4 -8 15 1 9 7 15 8
15 2 0 -6 19 -14 43 -18 52 -10 59 -11 75 -13 7 0 11 -5 8 -9 -3 -5 8 -6 25
-4 17 3 40 -3 55 -13 15 -9 23 -12 20 -6 -5 7 2 10 18 9 15 -1 26 -5 26 -9 0
-3 10 -6 23 -6 42 -1 48 -3 42 -15 -4 -7 0 -5 8 4 8 10 17 15 21 11 4 -4 28
-7 54 -8 26 0 52 -4 58 -7 5 -4 16 -3 24 2 8 5 21 5 29 1 9 -4 32 -6 51 -5
133 9 170 9 170 0 0 -6 4 -5 9 3 5 8 14 10 21 6 7 -4 16 -2 21 6 7 12 9 12 9
0 0 -9 4 -10 13 -4 6 5 33 9 59 9 25 -1 44 2 41 6 -2 5 8 9 24 9 15 1 37 3 48
5 11 2 36 5 56 7 19 2 41 7 47 11 7 4 22 9 34 11 62 12 124 29 134 36 6 5 13
6 16 3 3 -3 28 6 56 19 34 16 55 21 66 15 12 -7 14 -5 10 7 -5 11 -2 14 10 9
9 -3 16 -2 16 3 0 5 7 10 15 11 8 1 22 3 30 4 8 1 15 5 15 10 0 5 4 7 9 4 5
-3 12 1 15 10 3 9 13 14 20 11 8 -3 17 1 20 9 3 8 14 14 25 14 11 0 27 8 37
17 10 10 18 17 18 15 2 -6 41 12 54 25 8 7 18 11 23 8 5 -4 9 1 9 10 0 9 5 13
10 10 6 -3 10 -1 10 5 0 6 5 8 10 5 6 -3 10 -1 10 4 0 6 6 11 14 11 8 0 17 7
20 16 3 8 10 12 16 9 5 -3 10 -1 10 4 0 6 7 11 15 11 7 0 19 8 24 17 6 10 11
14 11 10 0 -5 7 -1 16 8 9 9 23 14 30 11 7 -3 11 0 8 7 -2 7 9 21 26 30 17 10
39 28 50 39 10 11 26 18 34 15 10 -4 13 -1 10 8 -4 9 4 19 20 26 14 7 23 17
19 22 -4 6 0 8 10 4 9 -3 16 -3 15 1 -3 9 113 122 125 122 4 0 5 5 2 10 -3 6
-1 10 5 10 6 0 24 16 41 35 17 19 36 32 42 28 6 -4 7 -1 2 7 -5 8 3 23 25 41
18 16 30 29 27 29 -3 0 10 17 29 38 19 20 37 45 40 55 3 9 12 17 20 17 8 0 13
4 10 9 -3 5 5 20 19 35 13 15 24 27 23 29 -2 1 12 23 30 49 18 26 32 51 32 57
0 5 8 15 18 20 9 6 13 11 9 11 -5 0 1 13 12 29 11 15 18 31 14 35 -3 3 -1 6 5
6 7 0 12 7 12 15 0 8 3 15 8 15 4 0 18 27 32 60 14 33 28 60 32 60 5 0 7 3 7
8 -1 4 4 23 12 42 7 19 12 38 11 43 -1 4 3 7 9 7 5 0 8 4 4 9 -3 5 -1 12 5 16
6 4 8 10 5 15 -3 5 -1 11 5 15 6 4 8 11 5 16 -4 5 -2 9 3 9 5 0 12 14 16 30 3
17 9 44 12 60 4 17 9 30 13 30 3 0 7 14 8 32 1 17 7 36 12 41 5 5 7 16 4 23
-3 8 -1 14 5 14 6 0 8 9 5 20 -3 11 -1 20 3 20 5 0 10 12 10 28 1 15 4 41 8
57 9 41 13 67 32 235 7 67 7 325 0 400 -10 93 -18 164 -21 180 -2 8 -13 58
-23 110 -11 52 -25 109 -30 127 -6 17 -8 34 -4 37 3 3 0 6 -7 6 -7 0 -11 6 -8
14 3 7 0 25 -8 38 -7 14 -18 49 -26 77 -7 28 -16 51 -21 51 -4 0 -7 3 -6 8 3
9 -41 122 -54 139 -6 7 -6 18 -2 24 5 9 2 10 -9 6 -11 -4 -14 -2 -10 9 3 7 0
14 -6 14 -6 0 -10 3 -10 8 4 21 -3 40 -21 60 -12 12 -17 22 -13 22 4 0 3 4 -3
8 -5 4 -18 24 -27 44 -10 20 -22 40 -27 43 -6 4 -8 11 -5 16 4 5 2 9 -4 9 -6
0 -18 15 -27 33 -9 17 -20 34 -24 37 -4 3 -15 20 -24 38 -9 17 -21 32 -26 32
-6 0 -10 5 -10 11 0 11 -48 75 -90 120 -8 9 -34 38 -57 65 -78 92 -83 97 -83
88 0 -5 -8 3 -17 16 -9 14 -24 30 -32 36 -9 7 -35 29 -58 50 -23 22 -58 53
-78 69 -20 17 -43 36 -50 43 -8 6 -16 12 -19 12 -6 0 -39 25 -68 53 -10 9 -20
17 -23 17 -12 1 -65 36 -65 43 0 4 -7 7 -15 7 -8 0 -15 4 -15 8 0 5 -16 14
-35 22 -19 8 -35 17 -35 22 0 4 -7 8 -15 8 -7 0 -19 8 -24 18 -6 9 -11 14 -11
9 0 -4 -27 6 -60 23 -33 17 -63 31 -67 33 -5 1 -7 5 -6 9 2 4 -6 5 -17 3 -11
-2 -26 2 -34 10 -7 8 -16 11 -20 8 -3 -4 -6 -2 -6 4 0 5 -7 10 -15 11 -8 1
-22 3 -30 4 -8 1 -15 6 -15 11 0 6 -3 8 -6 4 -4 -3 -19 0 -35 9 -16 8 -29 12
-29 8 0 -4 -6 -2 -13 4 -7 6 -24 13 -37 16 -14 2 -41 8 -60 12 -19 4 -41 11
-47 17 -7 5 -13 6 -13 2 0 -4 -8 -1 -17 6 -9 8 -14 9 -10 2 5 -7 0 -9 -13 -6
-11 3 -18 8 -16 12 2 3 -12 7 -33 8 -34 2 -76 9 -76 13 0 1 -18 3 -40 5 -60 6
-105 14 -117 21 -7 4 -8 2 -4 -4 5 -9 0 -9 -18 -3 -13 6 -33 10 -43 9 -71 -2
-172 6 -167 13 3 5 3 9 0 9 -3 0 -7 -4 -10 -9z"/>
<path d="M1915 5151 c-3 -5 -2 -12 3 -15 5 -3 9 1 9 9 0 17 -3 19 -12 6z"/>
<path d="M830 4080 c0 -5 5 -10 11 -10 5 0 7 5 4 10 -3 6 -8 10 -11 10 -2 0
-4 -4 -4 -10z"/>
<path d="M793 3875 c0 -8 4 -12 9 -9 5 3 6 10 3 15 -9 13 -12 11 -12 -6z"/>
<path d="M634 3220 c0 -13 4 -16 10 -10 7 7 7 13 0 20 -6 6 -10 3 -10 -10z"/>
<path d="M625 2440 c-3 -6 1 -7 9 -4 18 7 21 14 7 14 -6 0 -13 -4 -16 -10z"/>
<path d="M713 2205 c0 -8 4 -12 9 -9 5 3 6 10 3 15 -9 13 -12 11 -12 -6z"/>
<path d="M1636 958 c3 -5 10 -6 15 -3 13 9 11 12 -6 12 -8 0 -12 -4 -9 -9z"/>
</g>
</svg>
